<mxfile host="app.diagrams.net" modified="2024-05-27T17:01:29.475Z" agent="Mozilla/5.0 (Windows NT 10.0; Win64; x64) AppleWebKit/537.36 (KHTML, like Gecko) Chrome/125.0.0.0 Safari/537.36" version="24.4.8" etag="VZXFhqGkXcX66TXXeNh0" type="github">
  <diagram name="PÃ¡gina-1" id="ZA1C3tfnIEEL_Sx0iWqL">
    <mxGraphModel>
      <root>
        <mxCell id="0" />
        <mxCell id="1" parent="0" />
      </root>
    </mxGraphModel>
  </diagram>
</mxfile>
